<?xml version="1.0" encoding="UTF-8"?>
<svg width="800" height="600" viewBox="0 0 800 600" fill="none" xmlns="http://www.w3.org/2000/svg">
  <!-- 배경 -->
  <rect width="800" height="600" rx="20" fill="#F8FAFC"/>
  
  <!-- 메인 비디오 플레이어 -->
  <rect x="50" y="50" width="500" height="300" rx="10" fill="#FFFFFF" stroke="#E2E8F0" stroke-width="2"/>
  <rect x="70" y="70" width="460" height="240" rx="5" fill="#6366F1" opacity="0.1"/>
  <circle cx="300" cy="190" r="40" fill="#6366F1" opacity="0.8"/>
  <path d="M320 190L290 210V170L320 190Z" fill="white"/>
  
  <!-- AI 처리 표시 -->
  <rect x="50" y="380" width="500" height="80" rx="10" fill="#FFFFFF" stroke="#E2E8F0" stroke-width="2"/>
  <rect x="70" y="400" width="200" height="40" rx="5" fill="#6366F1" opacity="0.2"/>
  <rect x="290" y="400" width="240" height="40" rx="5" fill="#6366F1" opacity="0.1"/>
  
  <!-- 사이드 컨트롤 -->
  <rect x="580" y="50" width="170" height="410" rx="10" fill="#FFFFFF" stroke="#E2E8F0" stroke-width="2"/>
  
  <!-- AI 아이콘들 -->
  <circle cx="620" cy="90" r="20" fill="#6366F1" opacity="0.8"/>
  <circle cx="620" cy="150" r="20" fill="#6366F1" opacity="0.6"/>
  <circle cx="620" cy="210" r="20" fill="#6366F1" opacity="0.4"/>
  
  <!-- 컨트롤 바 -->
  <rect x="660" y="80" width="60" height="20" rx="5" fill="#6366F1" opacity="0.2"/>
  <rect x="660" y="140" width="60" height="20" rx="5" fill="#6366F1" opacity="0.2"/>
  <rect x="660" y="200" width="60" height="20" rx="5" fill="#6366F1" opacity="0.2"/>
  
  <!-- 진행 상태 -->
  <rect x="600" y="280" width="130" height="160" rx="5" fill="#6366F1" opacity="0.1"/>
  <circle cx="665" cy="340" r="30" fill="#6366F1" opacity="0.8"/>
  <text x="650" y="345" font-family="Arial" font-size="20" fill="#FFFFFF">AI</text>
</svg>
